<?xml version="1.0" encoding="UTF-8" standalone="no"?>
<!-- Created with Inkscape (http://www.inkscape.org/) -->

<svg
   width="48"
   height="48"
   viewBox="-32 -32 48 48.000003"
   version="1.1"
   id="svg1"
   inkscape:version="1.3.2 (091e20e, 2023-11-25, custom)"
   sodipodi:docname="enemy-white.svg"
   xmlns:inkscape="http://www.inkscape.org/namespaces/inkscape"
   xmlns:sodipodi="http://sodipodi.sourceforge.net/DTD/sodipodi-0.dtd"
   xmlns="http://www.w3.org/2000/svg"
   xmlns:svg="http://www.w3.org/2000/svg">
  <sodipodi:namedview
     id="namedview1"
     pagecolor="#ffffff"
     bordercolor="#000000"
     borderopacity="0.25"
     inkscape:showpageshadow="2"
     inkscape:pageopacity="0.0"
     inkscape:pagecheckerboard="false"
     inkscape:deskcolor="#d1d1d1"
     inkscape:document-units="px"
     showgrid="true"
     inkscape:zoom="16"
     inkscape:cx="30.21875"
     inkscape:cy="20.375"
     inkscape:window-width="1920"
     inkscape:window-height="1010"
     inkscape:window-x="-6"
     inkscape:window-y="-6"
     inkscape:window-maximized="1"
     inkscape:current-layer="g1"
     showguides="true"
     inkscape:lockguides="false">
    <inkscape:grid
       id="grid4"
       units="px"
       originx="0"
       originy="0"
       spacingx="1"
       spacingy="1.0000001"
       empcolor="#0099e5"
       empopacity="0.30196078"
       color="#0099e5"
       opacity="0.14901961"
       empspacing="8"
       dotted="false"
       gridanglex="30"
       gridanglez="30"
       visible="true" />
  </sodipodi:namedview>
  <defs
     id="defs1" />
  <g
     id="g1"
     transform="matrix(1.3333333,0,0,1.3333333,-29.333333,-29.333333)"
     style="stroke-width:0.75">
    <path
       style="fill:#ffffff;fill-opacity:1;stroke-width:3.00002;stroke-linecap:round;stroke-linejoin:round"
       d="M 1.0000005,31 C 1.0000005,31 3.0301057,14.603801 7,7.6127677 8.4028727,5.1422914 10.386874,2.6661791 13,1.5774081 c 1.847759,-0.76987737 4.15224,-0.76987737 5.999998,0 2.613126,1.088771 4.597128,3.5648833 6,6.0353596 C 28.969893,14.603801 31,31 31,31 c 0,0 -3.823727,-2.501085 -6.000002,-3.017894 -0.973245,-0.23112 -2.026754,-0.23112 -3,0 C 19.823725,28.498915 18.236099,31 16.000001,31 13.763902,31 12.176275,28.498915 9.9999997,27.982106 9.026754,27.750986 7.9732457,27.750986 7,27.982106 4.8237257,28.498915 1.0000005,31 1.0000005,31 Z"
       id="path1"
       sodipodi:nodetypes="caaaacaaaaac" />
    <ellipse
       style="fill:#000000;stroke-width:3;stroke-linecap:round;stroke-linejoin:round"
       id="path4"
       cx="7.9283481"
       cy="15.407507"
       rx="2.3333328"
       ry="3.4999986"
       transform="rotate(-16.601557)" />
    <ellipse
       style="fill:#000000;stroke-width:3;stroke-linecap:round;stroke-linejoin:round"
       id="ellipse4"
       cx="22.737726"
       cy="6.2646461"
       rx="2.3333328"
       ry="3.4999986"
       transform="rotate(16.601557)" />
    <rect
       style="fill:#000000;stroke-width:3;stroke-linecap:round;stroke-linejoin:round"
       id="rect5"
       width="14"
       height="1.9999994"
       x="9"
       y="21.000002"
       ry="0.74999952"
       rx="0.75" />
  </g>
</svg>
